<?xml version="1.0" encoding="utf-8"?>
<!-- Generator: Adobe Illustrator 18.0.0, SVG Export Plug-In . SVG Version: 6.00 Build 0)  -->
<!DOCTYPE svg PUBLIC "-//W3C//DTD SVG 1.1//EN" "http://www.w3.org/Graphics/SVG/1.1/DTD/svg11.dtd">
<svg version="1.1" id="Layer_1" xmlns="http://www.w3.org/2000/svg" xmlns:xlink="http://www.w3.org/1999/xlink" x="0px" y="0px"
	 viewBox="0 0 150 150" enable-background="new 0 0 150 150" xml:space="preserve">
<g>
	<path d="M40.6,54.2c-0.4-0.7-1.4-0.9-2.1-0.5c-0.7,0.4-0.9,1.4-0.5,2.1c0.2,0.4,6.3,9.7,19.3,9.7c13,0,19-9.3,19.3-9.7
		c0.4-0.7,0.2-1.6-0.5-2.1c-0.7-0.4-1.6-0.2-2.1,0.5c-0.1,0.1-5.4,8.3-16.7,8.3C46,62.5,40.8,54.5,40.6,54.2z"/>
	<path d="M43.8,40.5c3.3,0,6-2.7,6-6s-2.7-6-6-6s-6,2.7-6,6S40.5,40.5,43.8,40.5z M43.8,31.5c1.7,0,3,1.3,3,3s-1.3,3-3,3s-3-1.3-3-3
		S42.2,31.5,43.8,31.5z"/>
	<path d="M70.8,40.5c3.3,0,6-2.7,6-6s-2.7-6-6-6s-6,2.7-6,6S67.5,40.5,70.8,40.5z M70.8,31.5c1.7,0,3,1.3,3,3s-1.3,3-3,3s-3-1.3-3-3
		S69.2,31.5,70.8,31.5z"/>
	<path d="M147.7,74.8l-26.5-6.6c-0.5-0.1-1-0.1-1.5,0L97,73.8c-1.4-1.7-2.9-3.3-4.4-4.8c5.2-7.2,8.3-16,8.3-25.5
		c0-24-19.5-43.5-43.5-43.5S13.8,19.5,13.8,43.5c0,9.5,3.1,18.4,8.3,25.5C8.4,82.4,0.3,102.8,0.3,124.5c0,16.6,29.4,25.5,57,25.5
		c22.2,0,42.9-6,52-14.9c0.8,0.5,1.6,0.9,2.4,1.3l7.4,3.7c0.4,0.2,0.9,0.3,1.3,0.3s0.9-0.1,1.3-0.3l7.4-3.7
		C142,130,150,117.1,150,102.7v-25C150,76.3,149.1,75.1,147.7,74.8z M57.3,6C78,6,94.8,22.8,94.8,43.5S78,81,57.3,81
		c-20.7,0-37.5-16.8-37.5-37.5S36.7,6,57.3,6z M57.3,144c-27.6,0-51-8.9-51-19.5c0-19.9,7.3-38.7,19.7-50.9C33.9,81.9,45,87,57.3,87
		c12.3,0,23.4-5.1,31.3-13.4c0.9,0.9,1.7,1.8,2.6,2.7c-0.2,0.4-0.3,0.9-0.3,1.3v25c0,11.3,5,21.8,13.4,28.8
		C96.1,138.9,77.2,144,57.3,144z M144,102.7c0,12.1-6.7,22.9-17.5,28.3l-6.1,3l-6.1-3c-10.8-5.4-17.5-16.2-17.5-28.3V80l23.5-5.9
		L144,80V102.7z"/>
	<path d="M120.1,78.2l-18.4,4.6c-0.7,0.2-1.1,0.8-1.1,1.5v18.9c0,9.7,5.4,18.4,14.1,22.8l5.1,2.6c0.2,0.1,0.4,0.2,0.7,0.2
		s0.5-0.1,0.7-0.2l5.1-2.6c8.7-4.3,14.1-13.1,14.1-22.8V84.3c0-0.7-0.5-1.3-1.1-1.5l-18.4-4.6C120.6,78.2,120.3,78.2,120.1,78.2z
		 M137.3,85.4v17.7c0,8.6-4.8,16.3-12.4,20.1l-4.4,2.2l-4.4-2.2c-7.7-3.8-12.4-11.5-12.4-20.1V85.4l16.9-4.2L137.3,85.4z"/>
</g>
</svg>
