<?xml version="1.0" encoding="utf-8"?>
<!-- Generator: Adobe Illustrator 18.0.0, SVG Export Plug-In . SVG Version: 6.00 Build 0)  -->
<!DOCTYPE svg PUBLIC "-//W3C//DTD SVG 1.1//EN" "http://www.w3.org/Graphics/SVG/1.1/DTD/svg11.dtd">
<svg version="1.1" id="Layer_1" xmlns="http://www.w3.org/2000/svg" xmlns:xlink="http://www.w3.org/1999/xlink" x="0px" y="0px"
	 viewBox="0 0 150 150" enable-background="new 0 0 150 150" xml:space="preserve">
<g>
	<path d="M147.9,113.7l-9.3-4.8c0.2-1.5,0.4-3.1,0.4-4.7l3.1-0.4c0.6-0.1,1.2-0.3,1.7-0.8l4.9-4.5c1.2-1.1,1.3-3,0.2-4.2
		c-1.1-1.2-3-1.3-4.2-0.2l-4.2,3.8l-2,0.2c-1.5-7.8-6-14.3-12-17.5c1.2-10.1,9.1-11.6,10-11.7c1.6-0.2,2.8-1.7,2.6-3.3
		c-0.2-1.6-1.7-2.8-3.3-2.6c-4.6,0.6-13.1,4.6-15,15.7c-0.9-0.1-1.8-0.2-2.7-0.2c-1,0-1.9,0.1-2.9,0.2c-1.9-11.1-10.4-15.1-15-15.7
		c-1.6-0.2-3.1,1-3.3,2.6c-0.2,1.6,0.9,3.1,2.6,3.4c0.9,0.1,8.9,1.6,10,11.8c-1.9,1-3.7,2.4-5.2,4.1c-3.3-6-7.3-11.3-12-15.8
		c5.2-7.2,8.3-16,8.3-25.5C100.5,19.5,81,0,57,0C33,0,13.5,19.5,13.5,43.5c0,9.5,3.1,18.4,8.3,25.5C8.1,82.4,0,102.8,0,124.5
		C0,141.1,29.4,150,57,150c24.8,0,51.4-8,56.2-21.2c1.5,0.4,3.1,0.7,4.8,0.7c5.6,0,10.7-2.7,14.5-7.1l2.2,2l3.3,7.2
		c0.5,1.1,1.6,1.7,2.7,1.7c0.4,0,0.9-0.1,1.3-0.3c1.5-0.7,2.2-2.5,1.5-4l-3.6-7.8c-0.2-0.3-0.4-0.7-0.7-0.9l-3.3-3.1
		c0.4-0.8,0.8-1.7,1.2-2.6l8.1,4.2c0.4,0.2,0.9,0.3,1.4,0.3c1.1,0,2.1-0.6,2.7-1.6C149.9,116.3,149.4,114.4,147.9,113.7z M118,84.5
		c5.6,0,10.5,4,13,9.9c-3.9,2.4-8.4,3.6-13,3.6c-4.7,0-9.1-1.2-13-3.6C107.6,88.5,112.4,84.5,118,84.5z M111.5,121.6
		c-5-3.2-8.5-9.8-8.5-17.5c0-2.4,0.3-4.6,0.9-6.7c3.8,2.2,8.1,3.4,12.6,3.7v22.5c-1.2-0.1-2.3-0.5-3.3-1
		C112.7,122,112.2,121.7,111.5,121.6z M57,6c20.7,0,37.5,16.8,37.5,37.5S77.7,81,57,81S19.5,64.2,19.5,43.5S36.3,6,57,6z M57,144
		c-27.6,0-51-8.9-51-19.5c0-19.9,7.3-38.7,19.7-50.9C33.6,81.9,44.7,87,57,87c12.3,0,23.4-5.1,31.3-13.4c4.7,4.7,8.7,10.3,11.9,16.8
		c-1.2,2.4-2.2,5-2.7,7.8L95.3,98l-4.2-3.8c-1.2-1.1-3.1-1-4.2,0.2c-1.1,1.2-1,3.1,0.2,4.2l4.9,4.5c0.5,0.4,1.1,0.7,1.7,0.8l3.3,0.4
		c0,1.6,0.1,3.1,0.4,4.6l-9.5,4.9c-1.5,0.8-2,2.6-1.3,4c0.5,1,1.6,1.6,2.7,1.6c0.5,0,0.9-0.1,1.4-0.3l8.3-4.3
		c0.3,0.9,0.7,1.7,1.1,2.5l-3.5,3.3c-0.3,0.3-0.5,0.6-0.7,0.9l-3.6,7.8c-0.7,1.5,0,3.3,1.5,4c0.4,0.2,0.8,0.3,1.3,0.3
		c1.1,0,2.2-0.6,2.7-1.7l3.3-7.2l2.3-2.2c1.3,1.5,2.7,2.8,4.3,3.9C105.1,134.8,83.9,144,57,144z M119.5,123.4V101
		c4.5-0.2,8.7-1.5,12.6-3.7c0.6,2.1,0.9,4.4,0.9,6.7C133,114.1,127.1,122.4,119.5,123.4z"/>
	<path d="M37.7,63.2c-0.4,0.7-0.2,1.6,0.5,2.1c0.7,0.4,1.6,0.2,2.1-0.5c0.2-0.3,5.4-8.3,16.7-8.3s16.5,8,16.7,8.3
		c0.3,0.5,0.8,0.7,1.3,0.7c0.3,0,0.5-0.1,0.8-0.2c0.7-0.4,0.9-1.4,0.5-2.1C76,62.8,70,53.5,57,53.5S38,62.8,37.7,63.2z"/>
	<path d="M43.5,40.5c3.3,0,6-2.7,6-6s-2.7-6-6-6s-6,2.7-6,6S40.2,40.5,43.5,40.5z M43.5,31.5c1.7,0,3,1.3,3,3s-1.3,3-3,3s-3-1.3-3-3
		S41.8,31.5,43.5,31.5z"/>
	<path d="M70.5,40.5c3.3,0,6-2.7,6-6s-2.7-6-6-6s-6,2.7-6,6S67.2,40.5,70.5,40.5z M70.5,31.5c1.7,0,3,1.3,3,3s-1.3,3-3,3s-3-1.3-3-3
		S68.8,31.5,70.5,31.5z"/>
</g>
</svg>
