<?xml version="1.0" encoding="utf-8"?>
<!-- Generator: Adobe Illustrator 18.0.0, SVG Export Plug-In . SVG Version: 6.00 Build 0)  -->
<!DOCTYPE svg PUBLIC "-//W3C//DTD SVG 1.1//EN" "http://www.w3.org/Graphics/SVG/1.1/DTD/svg11.dtd">
<svg version="1.1" id="Layer_1" xmlns="http://www.w3.org/2000/svg" xmlns:xlink="http://www.w3.org/1999/xlink" x="0px" y="0px"
	 viewBox="0 0 150 150" enable-background="new 0 0 150 150" xml:space="preserve">
<g>
	<path d="M75,0C33.6,0,0,33.6,0,75c0,41.4,33.6,75,75,75c41.4,0,75-33.6,75-75C150,33.6,116.4,0,75,0z M75,144c-38,0-69-31-69-69
		S37,6,75,6s69,31,69,69S113,144,75,144z"/>
	<path d="M109.9,32.5c0-0.4-0.2-0.8-0.6-1.1C99.5,23.6,87.6,19.5,75,19.5c-30.6,0-55.5,24.9-55.5,55.5c0,12.6,4.1,24.5,11.9,34.3
		c0.3,0.3,0.7,0.5,1.1,0.6c0,0,0.1,0,0.1,0c0.4,0,0.8-0.2,1.1-0.4l75.8-75.8C109.8,33.3,109.9,32.9,109.9,32.5z M57.6,79.6
		c0-2.9,0.4-5.6,1.2-8.1c1.9,1.1,3.9,2,5.9,2.7l-7,7C57.6,80.7,57.6,80.2,57.6,79.6z M59.8,68.6c3-7,8.8-11.7,15.3-11.7
		c2,0,3.8,0.4,5.6,1.2L67.1,71.8C64.5,71.1,62.1,70,59.8,68.6z M85.2,53.7c-0.3-0.2-0.5-0.3-0.8-0.5c1.3-12.4,11.3-13.9,11.8-14
		c1.6-0.2,2.8-1.7,2.6-3.3c-0.2-1.6-1.7-2.8-3.3-2.6c-5.3,0.7-14.9,5.3-16.9,18c-1.1-0.2-2.3-0.3-3.4-0.3c-1.2,0-2.4,0.1-3.6,0.3
		c-1.9-12.7-11.6-17.4-16.9-18c-1.6-0.2-3.1,1-3.3,2.6c-0.2,1.6,1,3.1,2.6,3.3c0.4,0.1,10.6,1.5,11.8,14.1
		c-6.8,3.6-12,11.1-13.6,20.1l-3.1-0.4l-4.9-4.5c-1.2-1.1-3.1-1-4.2,0.2s-1,3.1,0.2,4.2l5.6,5.1c0.5,0.4,1.1,0.7,1.7,0.8l4.2,0.5
		c0,0.1,0,0.1,0,0.2c0,1.9,0.2,3.8,0.5,5.7L40.9,91c-1.5,0.8-2,2.6-1.3,4c0.5,1,1.5,1.6,2.5,1.6l-9.5,9.5C26,97.1,22.5,86.3,22.5,75
		c0-28.9,23.6-52.5,52.5-52.5c11.3,0,22.1,3.5,31.1,10.2L85.2,53.7z"/>
	<path d="M118.6,40.7c-0.3-0.3-0.7-0.5-1.1-0.6c-0.4,0-0.8,0.1-1.1,0.4l-75.8,75.8c-0.3,0.3-0.5,0.7-0.4,1.1c0,0.4,0.2,0.8,0.6,1.1
		c9.9,7.8,21.8,11.9,34.3,11.9c30.6,0,55.5-24.9,55.5-55.5C130.5,62.4,126.4,50.5,118.6,40.7z M91.5,71.5c0.8,2.5,1.2,5.3,1.2,8.1
		c0,11.9-7.1,21.6-16,22.6V84.5l11.1-11.1C89,72.9,90.3,72.2,91.5,71.5z M73.6,87.5v14.7c-3.6-0.4-7-2.3-9.6-5.1L73.6,87.5z
		 M75,127.5c-11.3,0-22.1-3.5-31.1-10.2l4.5-4.5c0.2,0,0.4,0.1,0.5,0.1c1.1,0,2.2-0.6,2.7-1.7l1.4-3l6.8-6.8c4.1,4.3,9.5,7,15.4,7
		c6.4,0,12.2-3.1,16.5-8.2l2.9,2.7l3.9,8.3c0.5,1.1,1.6,1.7,2.7,1.7c0.4,0,0.9-0.1,1.3-0.3c1.5-0.7,2.2-2.5,1.5-4l-4.1-8.8
		c-0.2-0.3-0.4-0.7-0.7-0.9L95,95c0.6-1.2,1.2-2.4,1.6-3.7l9.7,5c0.4,0.2,0.9,0.3,1.4,0.3c1.1,0,2.1-0.6,2.7-1.6
		c0.8-1.5,0.2-3.3-1.3-4l-10.8-5.6c0.3-1.9,0.5-3.8,0.5-5.8c0-0.1,0-0.1,0-0.2l3.9-0.4c0.6-0.1,1.2-0.3,1.7-0.8l5.6-5.1
		c1.2-1.1,1.3-3,0.2-4.2s-3-1.3-4.2-0.2l-4.9,4.5l-2.8,0.3c-0.5-2.8-1.4-5.5-2.5-7.9l21.6-21.6c6.7,9.1,10.2,19.8,10.2,31.1
		C127.5,103.9,103.9,127.5,75,127.5z"/>
</g>
</svg>
