<?xml version="1.0" encoding="utf-8"?>
<!-- Generator: Adobe Illustrator 18.0.0, SVG Export Plug-In . SVG Version: 6.00 Build 0)  -->
<!DOCTYPE svg PUBLIC "-//W3C//DTD SVG 1.1//EN" "http://www.w3.org/Graphics/SVG/1.1/DTD/svg11.dtd">
<svg version="1.1" id="Layer_1" xmlns="http://www.w3.org/2000/svg" xmlns:xlink="http://www.w3.org/1999/xlink" x="0px" y="0px"
	 viewBox="0 0 374.4 63" enable-background="new 0 0 150 150" xml:space="preserve">
<g>
	 <path style="fill:#FFFFFF;" d="M53.6,29.6L42.4,62.5h-9.5l-6.1-17.9l-6.1,17.9h-9.5L0,29.6h9.5l6.4,19.9l6.4-19.9h8.9
	 l6.4,19.9l6.4-19.9H53.6z M85.9,44.4v4.9h-24c0.3,1.8,1.2,3.3,2.8,4.4s3.4,1.7,5.4,1.7c1.9,0,3.7-0.4,5.2-1.2
	 c1.9-1,4.3-0.4,5.8,1.2l2.2,2.3c-3.7,3.5-8.1,5.3-13.1,5.3s-9.1-1.5-12.4-4.6s-4.9-7.2-4.9-12.4c0-5.2,1.7-9.3,5-12.4 c3.3-3.1,7.3-4.6,11.8-4.6c4.5,0,8.4,1.4,11.5,4.1C84.3,35.9,85.9,39.6,85.9,44.4z
	 M76.6,42.7c-0.2-2-0.9-3.5-2.2-4.5 c-1.3-1.1-2.8-1.6-4.6-1.6s-3.5,0.6-5,1.7c-1.5,1.1-2.4,2.6-2.6,4.5H76.6z
	 M118.9,33.7c3,3.1,4.5,7.1,4.5,12c0,4.9-1.5,9-4.6,12.3 c-3.1,3.3-6.5,5-10.4,5c-3.9,0-7.1-1.6-9.7-4.8c0,2.4-1.9,4.3-4.3,4.3h-4.8V17.1h9.2v16.2c2.5-2.8,5.8-4.2,9.8-4.2
	 C112.4,29,115.9,30.6,118.9,33.7z M114.1,46.1c0-2.7-0.8-4.9-2.3-6.7c-1.6-1.8-3.4-2.7-5.6-2.7s-4,0.9-5.5,2.7 c-1.5,1.8-2.2,4-2.2,6.7s0.7,4.9,2.2,6.5c1.5,1.7,3.3,2.5,5.4,2.5c2.1,0,4-0.8,5.6-2.5C113.3,50.9,114.1,48.8,114.1,46.1z
	 M148.4,47.3c0,2.5-0.7,4.5-2,5.8c-1.3,1.3-2.9,2-4.8,2c-3.7,0-5.6-2.5-5.6-7.6V29.6h-9.2v19.9c0,4.4,1.2,7.8,3.7,10.1 s5.5,3.4,9.1,3.4c3.6,0,6.6-1.6,8.8-4.8c0,2.4,1.9,4.3,4.3,4.3h4.9V29.6h-9.2V47.3z M201.1,29c-2.2,0-4.3,0.6-6.5,1.7
	 s-3.8,2.7-5.1,4.7c-0.8-1.7-2.1-3.2-3.8-4.4c-1.4-1-3.1-1.7-4.9-1.9c-3.6-0.3-6.8,1.2-9.5,4.3c0-2.1-1.7-3.7-3.7-3.7h-5.4v32.9h9.2 V44.8c0-2.6,0.7-4.5,2-5.8c1.4-1.3,2.9-2,4.7-2s3.1,0.6,3.9,1.8c0.8,1.2,1.2,3.1,1.2,5.8v18h9.2V44.8c0-2.6,0.7-4.5,2-5.8
	 c1.3-1.3,2.9-2,4.8-2c3.7,0,5.6,2.5,5.6,7.6v18h9.2v-20c0-4.4-1.2-7.7-3.5-10C208.1,30.2,205,29,201.1,29z M247.7,33.7 c3,3.1,4.5,7.1,4.5,12c0,4.9-1.5,9-4.6,12.3c-3.1,3.3-6.5,5-10.4,5c-3.9,0-7.1-1.6-9.7-4.8c0,2.4-1.9,4.3-4.3,4.3h-4.8V17.1h9.2
	 v16.2c2.5-2.8,5.8-4.2,9.8-4.2C241.3,29,244.8,30.6,247.7,33.7z M243,46.1c0-2.7-0.8-4.9-2.3-6.7c-1.6-1.8-3.4-2.7-5.6-2.7 s-4,0.9-5.5,2.7c-1.5,1.8-2.2,4-2.2,6.7s0.7,4.9,2.2,6.5c1.5,1.7,3.3,2.5,5.4,2.5c2.1,0,4-0.8,5.6-2.5 C242.2,50.9,243,48.8,243,46.1z
	 M265.2,33.9c0-2.4-1.9-4.3-4.3-4.3H256v32.9h9.2V48.2c0-3.2,0.7-5.7,2-7.7c1.3-1.9,4.1-2.9,6.8-2.9
	 l1-8.6c-1.8,0-3.6,0.5-5.4,1.5S266.4,32.6,265.2,33.9z
	 M308.3,44.4v4.9h-24c0.3,1.8,1.2,3.3,2.8,4.4s3.4,1.7,5.4,1.7
	 c1.9,0,3.7-0.4,5.2-1.2c1.9-1,4.3-0.4,5.8,1.2l2.2,2.3c-3.7,3.5-8.1,5.3-13.1,5.3s-9.1-1.5-12.4-4.6s-4.9-7.2-4.9-12.4
	 c0-5.2,1.7-9.3,5-12.4c3.3-3.1,7.3-4.6,11.8-4.6c4.5,0,8.4,1.4,11.5,4.1C306.7,35.9,308.3,39.6,308.3,44.4z
	 M299,42.7
	 c-0.2-2-0.9-3.5-2.2-4.5c-1.3-1.1-2.8-1.6-4.6-1.6s-3.5,0.6-5,1.7c-1.5,1.1-2.4,2.6-2.6,4.5H299z
	 M323.8,55.4 c-1.5,0-2.7-1.2-2.7-2.8V20.6h-9.2v33.5c0,4.7,3.8,8.4,8.4,8.4h6.7l-1-7L323.8,55.4z
	 M340.3,55.4c-1.5,0-2.7-1.2-2.7-2.8V29h-9.2
	 v25c0,4.7,3.8,8.4,8.4,8.4h6.7l-1-7L340.3,55.4z
	 M374.4,41.5v21h-4.6c-2.2,0-4-1.8-4-4c-2.4,3-5.3,4.5-8.8,4.5c-3.5,0-6.4-1-8.8-3
	 c-2.4-2-3.5-4.7-3.5-8.1s1.2-5.9,3.7-7.6c2.4-1.7,5.8-2.5,10-2.5h6.9v-0.2c0-3.5-1.9-5.3-5.6-5.3c-1.6,0-3.3,0.3-5,0.9
	 c-0.4,0.1-0.7,0.3-1,0.4c-2.2,0.9-4.6,0.3-6-1.7l-1.6-2.3c4.3-3.1,9.3-4.7,14.8-4.7c4,0,7.3,1,9.8,3 C373.2,34,374.4,37.2,374.4,41.5z M365.2,48.4h-5.8c-3.7,0-5.5,1.1-5.5,3.4c0,1.2,0.4,2.1,1.3,2.7c0.9,0.6,2.1,0.9,3.8,0.9 c1.6,0,3.1-0.5,4.3-1.5c1.2-1,1.9-2.3,1.9-4V48.4z"></path>
	 <path style="fill:#D3585D;" d="M316.8,15.1h-18.4c5-3.9,11.3-6.1,18-6.1c6.7,0,13,2.2,18,6.1h-1.8 c-2.4,0-4.3,1.9-4.3,4.3v4.7h23.7C346.4,10,332.5,0,316.3,0c-16.2,0-30,10-35.7,24.1H321v-4.7C321,17,319.1,15.1,316.8,15.1z"></path>
 </g>
</svg>
