<?xml version="1.0" encoding="utf-8"?>
<!-- Generator: Adobe Illustrator 18.0.0, SVG Export Plug-In . SVG Version: 6.00 Build 0)  -->
<!DOCTYPE svg PUBLIC "-//W3C//DTD SVG 1.1//EN" "http://www.w3.org/Graphics/SVG/1.1/DTD/svg11.dtd">
<svg version="1.1" id="Layer_1" xmlns="http://www.w3.org/2000/svg" xmlns:xlink="http://www.w3.org/1999/xlink" x="0px" y="0px"
	 viewBox="0 0 150 150" enable-background="new 0 0 150 150" xml:space="preserve">
<path d="M104.4,90.4l-9.3-4.8c0.2-1.5,0.4-3.1,0.4-4.7l3.1-0.4c0.6-0.1,1.2-0.3,1.7-0.8l4.9-4.5c1.2-1.1,1.3-3,0.2-4.2
	c-1.1-1.2-3-1.3-4.2-0.2l-4.2,3.8l-2,0.2c-1.5-7.8-6-14.3-12-17.5c1.2-10.1,9.1-11.6,10-11.7c1.6-0.2,2.8-1.7,2.6-3.3
	c-0.2-1.6-1.7-2.8-3.3-2.6c-4.6,0.6-13.1,4.6-15,15.7c-0.9-0.1-1.8-0.2-2.7-0.2c-1,0-1.9,0.1-2.9,0.2c-1.9-11.1-10.4-15.1-15-15.7
	c-1.6-0.2-3.1,1-3.3,2.6c-0.2,1.6,0.9,3.1,2.6,3.4c0.9,0.1,8.9,1.6,10,11.8C60,60.7,55.5,67.2,54,75l-2.2-0.3l-4.2-3.8
	c-1.2-1.1-3.1-1-4.2,0.2c-1.1,1.2-1,3.1,0.2,4.2l4.9,4.5c0.5,0.4,1.1,0.7,1.7,0.8l3.3,0.4c0,1.6,0.1,3.1,0.4,4.6l-9.5,4.9
	c-1.5,0.8-2,2.6-1.3,4c0.5,1,1.6,1.6,2.7,1.6c0.5,0,0.9-0.1,1.4-0.3l8.3-4.3c0.3,0.9,0.7,1.7,1.1,2.5L53,97.3
	c-0.3,0.3-0.5,0.6-0.7,0.9l-3.6,7.8c-0.7,1.5,0,3.3,1.5,4c0.4,0.2,0.8,0.3,1.3,0.3c1.1,0,2.2-0.6,2.7-1.7l3.3-7.2l2.3-2.2
	c3.8,4.4,8.9,7.2,14.6,7.2c5.6,0,10.7-2.7,14.5-7.1l2.2,2l3.3,7.2c0.5,1.1,1.6,1.7,2.7,1.7c0.4,0,0.9-0.1,1.3-0.3
	c1.5-0.7,2.2-2.5,1.5-4l-3.6-7.8c-0.2-0.3-0.4-0.7-0.7-0.9l-3.3-3.1c0.4-0.8,0.8-1.7,1.2-2.6l8.1,4.2c0.4,0.2,0.9,0.3,1.4,0.3
	c1.1,0,2.1-0.6,2.7-1.6C106.4,93,105.8,91.2,104.4,90.4z M74.5,61.2c5.6,0,10.5,4,13,9.9c-3.9,2.4-8.4,3.6-13,3.6
	c-4.7,0-9.1-1.2-13-3.6C64,65.2,68.9,61.2,74.5,61.2z M59.5,80.7c0-2.4,0.3-4.6,0.9-6.7c3.8,2.2,8.1,3.4,12.6,3.7v22.5
	C65.4,99.2,59.5,90.8,59.5,80.7z M76,100.1V77.7c4.5-0.2,8.7-1.5,12.6-3.7c0.6,2.1,0.9,4.4,0.9,6.7C89.5,90.8,83.5,99.2,76,100.1z"
	/>
</svg>
