<?xml version="1.0" encoding="utf-8"?>
<!-- Generator: Adobe Illustrator 18.0.0, SVG Export Plug-In . SVG Version: 6.00 Build 0)  -->
<!DOCTYPE svg PUBLIC "-//W3C//DTD SVG 1.1//EN" "http://www.w3.org/Graphics/SVG/1.1/DTD/svg11.dtd">
<svg version="1.1" id="Layer_1" xmlns="http://www.w3.org/2000/svg" xmlns:xlink="http://www.w3.org/1999/xlink" x="0px" y="0px"
	 viewBox="0 0 150 150" enable-background="new 0 0 150 150" xml:space="preserve">
<g>
	<path d="M138.5,0h-127C5.2,0,0,5.2,0,11.5v127c0,6.3,5.2,11.5,11.5,11.5h127c6.3,0,11.5-5.2,11.5-11.5v-127
		C150,5.2,144.8,0,138.5,0z M144,138.5c0,3-2.5,5.5-5.5,5.5h-127c-3,0-5.5-2.5-5.5-5.5v-127C6,8.5,8.5,6,11.5,6h127
		c3,0,5.5,2.5,5.5,5.5V138.5z"/>
	<path d="M111,99.6H95.4V83c0-10.7-8.7-19.4-19.4-19.4H39c-1.3,0-2.4,1.1-2.4,2.4v17c0,1.3,1.1,2.4,2.4,2.4h29.8
		c2.1,0,3.8,1.7,3.8,3.8v10.5H57c-1,0-1.8,0.6-2.2,1.5c-0.4,0.9-0.2,1.9,0.5,2.6l27,27c0.5,0.5,1.1,0.7,1.7,0.7s1.2-0.2,1.7-0.7
		l27-27c0.7-0.7,0.9-1.7,0.5-2.6S112,99.6,111,99.6z M84,125.6l-21.3-21.3H75c1.3,0,2.4-1.1,2.4-2.4V89.2c0-4.7-3.8-8.5-8.5-8.5
		H41.4V68.4H76c8.1,0,14.6,6.6,14.6,14.6v19c0,1.3,1.1,2.4,2.4,2.4h12.3L84,125.6z"/>
	<path d="M25.2,19.5H21c-0.8,0-1.5,0.7-1.5,1.5v27c0,0.8,0.7,1.5,1.5,1.5h4.2c5.5,0,10-4.5,10-10v-10C35.2,24,30.7,19.5,25.2,19.5z
		 M32.2,39.5c0,3.9-3.1,7-7,7h-2.7v-24h2.7c3.9,0,7,3.1,7,7V39.5z"/>
	<path d="M40.1,49.5h12.7c0.8,0,1.5-0.7,1.5-1.5s-0.7-1.5-1.5-1.5H41.6V36h4.9c0.8,0,1.5-0.7,1.5-1.5S47.2,33,46.4,33h-4.9V22.5
		h11.2c0.8,0,1.5-0.7,1.5-1.5s-0.7-1.5-1.5-1.5H40.1c-0.8,0-1.5,0.7-1.5,1.5v27C38.6,48.8,39.2,49.5,40.1,49.5z"/>
	<path d="M59.1,22.5H64V48c0,0.8,0.7,1.5,1.5,1.5S67,48.8,67,48V22.5h4.9c0.8,0,1.5-0.7,1.5-1.5s-0.7-1.5-1.5-1.5H59.1
		c-0.8,0-1.5,0.7-1.5,1.5S58.3,22.5,59.1,22.5z"/>
	<path d="M84.5,49.5c4.3,0,7.9-3.5,7.9-7.9V27.4c0-4.3-3.5-7.9-7.9-7.9s-7.9,3.5-7.9,7.9v14.3C76.7,46,80.2,49.5,84.5,49.5z
		 M79.7,27.4c0-2.7,2.2-4.9,4.9-4.9s4.9,2.2,4.9,4.9v14.3c0,2.7-2.2,4.9-4.9,4.9s-4.9-2.2-4.9-4.9V27.4z"/>
	<path d="M103.6,49.5c4.3,0,7.9-3.5,7.9-7.9V21c0-0.8-0.7-1.5-1.5-1.5s-1.5,0.7-1.5,1.5v20.6c0,2.7-2.2,4.9-4.9,4.9
		s-4.9-2.2-4.9-4.9V21c0-0.8-0.7-1.5-1.5-1.5s-1.5,0.7-1.5,1.5v20.6C95.7,46,99.3,49.5,103.6,49.5z"/>
	<path d="M130.5,27.8c0-4.5-3.7-8.3-8.3-8.3h-6c-0.8,0-1.5,0.7-1.5,1.5v13.5c0,0,0,0,0,0V48c0,0.8,0.7,1.5,1.5,1.5s1.5-0.7,1.5-1.5
		v-9.7L127.9,49c0.3,0.3,0.7,0.5,1.1,0.5c0.4,0,0.7-0.1,1-0.4c0.6-0.6,0.6-1.5,0.1-2.1l-10.3-11h2.5C126.8,36,130.5,32.3,130.5,27.8
		z M117.8,33V22.5h4.5c2.9,0,5.3,2.4,5.3,5.3s-2.4,5.3-5.3,5.3H117.8z"/>
</g>
</svg>
