<?xml version="1.0" encoding="utf-8"?>
<!-- Generator: Adobe Illustrator 18.0.0, SVG Export Plug-In . SVG Version: 6.00 Build 0)  -->
<!DOCTYPE svg PUBLIC "-//W3C//DTD SVG 1.1//EN" "http://www.w3.org/Graphics/SVG/1.1/DTD/svg11.dtd">
<svg version="1.1" id="Layer_1" xmlns="http://www.w3.org/2000/svg" xmlns:xlink="http://www.w3.org/1999/xlink" x="0px" y="0px"
	 viewBox="0 0 150 150" enable-background="new 0 0 150 150" xml:space="preserve">
<g>
	<path d="M58.3,54.2c-0.4-0.7-1.4-0.9-2.1-0.5c-0.7,0.4-0.9,1.4-0.5,2.1C56,56.2,62,65.5,75,65.5c13,0,19-9.3,19.3-9.7
		c0.4-0.7,0.2-1.6-0.5-2.1c-0.7-0.4-1.6-0.2-2.1,0.5c-0.1,0.1-5.4,8.3-16.7,8.3C63.7,62.5,58.5,54.5,58.3,54.2z"/>
	<path d="M61.5,40.5c3.3,0,6-2.7,6-6s-2.7-6-6-6s-6,2.7-6,6S58.2,40.5,61.5,40.5z M61.5,31.5c1.7,0,3,1.3,3,3s-1.3,3-3,3s-3-1.3-3-3
		S59.8,31.5,61.5,31.5z"/>
	<path d="M88.5,40.5c3.3,0,6-2.7,6-6s-2.7-6-6-6s-6,2.7-6,6S85.2,40.5,88.5,40.5z M88.5,31.5c1.7,0,3,1.3,3,3s-1.3,3-3,3s-3-1.3-3-3
		S86.8,31.5,88.5,31.5z"/>
	<path d="M110.2,69c5.2-7.2,8.3-16,8.3-25.5C118.5,19.5,99,0,75,0C51,0,31.5,19.5,31.5,43.5c0,9.5,3.1,18.4,8.3,25.5
		C26.1,82.4,18,102.8,18,124.5c0,16.6,29.4,25.5,57,25.5c27.4,0,57-9.7,57-25.5C132,102.8,123.9,82.4,110.2,69z M75,6
		c20.7,0,37.5,16.8,37.5,37.5S95.7,81,75,81S37.5,64.2,37.5,43.5S54.3,6,75,6z M75,144c-27.6,0-51-8.9-51-19.5
		c0-19.9,7.3-38.7,19.7-50.9C51.6,81.9,62.7,87,75,87c12.3,0,23.4-5.1,31.3-13.4c12.4,12.2,19.7,31,19.7,50.9
		C126,133.5,103.7,144,75,144z"/>
</g>
</svg>
