<?xml version="1.0" encoding="utf-8"?>
<!-- Generator: Adobe Illustrator 18.0.0, SVG Export Plug-In . SVG Version: 6.00 Build 0)  -->
<!DOCTYPE svg PUBLIC "-//W3C//DTD SVG 1.1//EN" "http://www.w3.org/Graphics/SVG/1.1/DTD/svg11.dtd">
<svg version="1.1" id="Layer_1" xmlns="http://www.w3.org/2000/svg" xmlns:xlink="http://www.w3.org/1999/xlink" x="0px" y="0px"
	 viewBox="0 0 150 150" enable-background="new 0 0 150 150" xml:space="preserve">
<g>
	<path d="M75,0C33.6,0,0,33.6,0,75c0,41.4,33.6,75,75,75c41.4,0,75-33.6,75-75C150,33.6,116.4,0,75,0z M75,144c-38,0-69-31-69-69
		S37,6,75,6c31.6,0,58.4,21.4,66.5,50.5h-31v-9.8c0-0.8-0.7-1.5-1.5-1.5H80c-0.8,0-1.5,0.7-1.5,1.5v1.1c-0.1-0.3-0.3-0.5-0.4-0.8
		l-9.9-16.2c-2.2-4.4-7.6-6.1-11.9-3.9c-4.4,2.2-6.2,7.5-4,11.9l4.6,11.7c0.5,1.2,0.3,2.4-0.4,3.5c-0.7,1-1.8,1.6-3.1,1.6H38.3
		c-4.8,0-8.8,3.7-9.1,8.3c-0.2,2.5,0.7,4.9,2.4,6.7c0.5,0.5,1,0.9,1.6,1.3c-0.6,0.4-1.1,0.8-1.6,1.3c-1.7,1.8-2.6,4.2-2.4,6.7
		c0.3,4.7,4.3,8.3,9.1,8.3h0.5c-1.6,1.8-2.4,4.1-2.2,6.5c0.3,4.7,4.3,8.3,9.1,8.3h21.6c4.2,0,8.2-1.6,11.3-4.3v2.7
		c0,0.8,0.7,1.5,1.5,1.5h29c0.8,0,1.5-0.7,1.5-1.5h28.2C128.3,126.4,103.7,144,75,144z M144,75c0,8.2-1.5,16.2-4.1,23.5h-29.4v-39
		h31.7C143.4,64.5,144,69.7,144,75z M45.4,85.3h-7.2c-3.3,0-6-2.4-6.2-5.5c-0.1-1.7,0.5-3.2,1.6-4.4c1.1-1.2,2.7-1.9,4.3-1.9
		c0.8,0,1.5-0.7,1.5-1.5s-0.7-1.5-1.5-1.5c-1.7,0-3.2-0.7-4.3-1.9c-1.1-1.2-1.7-2.8-1.6-4.4c0.2-3.1,2.9-5.5,6.2-5.5h15.1
		c2.2,0,4.3-1.1,5.6-2.9c1.3-1.8,1.5-4.2,0.7-6.2L55,37.7c0,0,0-0.1-0.1-0.1c-1.5-2.9-0.3-6.5,2.6-7.9c2.9-1.5,6.5-0.3,7.9,2.6
		c0,0,0,0.1,0.1,0.1l9.9,16.2c1.2,1.9,2.2,4,3,6.1v39.5c-2.6,3.7-6.7,5.9-11.3,5.9H45.7c-3.3,0-6-2.4-6.2-5.5
		c-0.1-1.7,0.5-3.2,1.6-4.4c1.1-1.2,2.7-1.9,4.3-1.9c0.8,0,1.5-0.7,1.5-1.5S46.2,85.3,45.4,85.3z M81.5,94.8
		C81.5,94.7,81.5,94.7,81.5,94.8V54.5c0,0,0,0,0,0v-6.3h26V58v42h-26V94.8z"/>
	<path d="M94.5,52.5c-2.8,0-5,2.2-5,5s2.2,5,5,5s5-2.2,5-5S97.3,52.5,94.5,52.5z M94.5,59.5c-1.1,0-2-0.9-2-2s0.9-2,2-2s2,0.9,2,2
		S95.6,59.5,94.5,59.5z"/>
</g>
</svg>
