<?xml version="1.0" encoding="utf-8"?>
<!-- Generator: Adobe Illustrator 18.0.0, SVG Export Plug-In . SVG Version: 6.00 Build 0)  -->
<!DOCTYPE svg PUBLIC "-//W3C//DTD SVG 1.1//EN" "http://www.w3.org/Graphics/SVG/1.1/DTD/svg11.dtd">
<svg version="1.1" id="Layer_1" xmlns="http://www.w3.org/2000/svg" xmlns:xlink="http://www.w3.org/1999/xlink" x="0px" y="0px"
	 viewBox="0 0 150 150" enable-background="new 0 0 150 150" xml:space="preserve">
<path d="M150,56.6c-0.4-21.1-32.1-46.3-72-47.6V3c0-1.7-1.3-3-3-3c-1.7,0-3,1.3-3,3v6.1C31.9,10.3,0,35.8,0,57c0,1.7,1.3,3,3,3h70.5
	v57.4c-0.9,0.5-1.5,1.5-1.5,2.6v18c0,6.6,5.4,12,12,12s12-5.4,12-12c0-1.7-1.3-3-3-3s-3,1.3-3,3c0,3.3-2.7,6-6,6s-6-2.7-6-6v-18
	c0-1.1-0.6-2.1-1.5-2.6V60H147c0,0,0,0,0,0c1.7,0,3-1.3,3-3C150,56.9,150,56.7,150,56.6z M100.4,54H76.5V15c1.6,0,3.3,0.1,4.9,0.2
	C91.5,20.7,99.5,38.2,100.4,54z M68.6,15.2c1.6-0.1,3.2-0.2,4.9-0.2v39H49.6C50.5,38.2,58.5,20.7,68.6,15.2z M62.7,15.8
	c-9,8-15.3,23.8-16.1,38.2H22.7c1.7-14.5,15.7-30.5,34.2-37.2C58.8,16.4,60.7,16.1,62.7,15.8z M103.4,54
	c-0.8-14.4-7.1-30.2-16.1-38.2c2,0.3,3.9,0.6,5.8,0.9c18.5,6.7,32.5,22.7,34.2,37.2H103.4z M42,21.1c-2.1,1.5-4.2,3.1-6.2,4.9
	C26.6,34.2,20.7,44.5,19.7,54H6.3C8.4,42.7,21.8,28.8,42,21.1z M130.3,54c-1-9.5-6.9-19.8-16.1-28.1c-2-1.8-4-3.4-6.2-4.9
	c20.1,7.8,33.6,21.6,35.7,32.9H130.3z"/>
</svg>
